<svg width="22" height="21" viewBox="0 0 22 21" fill="none" xmlns="http://www.w3.org/2000/svg">
<path d="M15.1746 12.8279C15.3557 12.4554 15.2005 12.0066 14.828 11.8255C14.4555 11.6444 14.0067 11.7996 13.8256 12.1721C13.7651 12.2964 13.4616 12.7071 12.9263 13.0899C12.4093 13.4596 11.7486 13.75 11.0001 13.75C9.42788 13.75 8.58932 12.8016 8.12945 12.0921C7.90416 11.7445 7.43975 11.6453 7.09217 11.8706C6.74458 12.0959 6.64543 12.5603 6.87072 12.9079C7.44789 13.7984 8.68341 15.25 11.0001 15.25C12.144 15.25 13.1037 14.8071 13.7987 14.3101C14.4755 13.8262 14.9758 13.2369 15.1746 12.8279Z" fill="white"/>
<path fill-rule="evenodd" clip-rule="evenodd" d="M12.5069 0.58041L13.3816 1.15338L21.4088 6.37105C21.7561 6.59679 21.8547 7.06133 21.6289 7.40862C21.4032 7.75592 20.9386 7.85446 20.5913 7.62871L19.7126 7.0575C19.7374 7.24309 19.7501 7.43144 19.7501 7.62149V16C19.7501 18.3473 17.8473 20.25 15.5001 20.25H6.50009C4.15288 20.25 2.25009 18.3473 2.25009 16V7.62149C2.25009 7.43144 2.26279 7.24309 2.28762 7.0575L1.40883 7.62871C1.06153 7.85446 0.596997 7.75592 0.371255 7.40862C0.145514 7.06133 0.244052 6.59679 0.591347 6.37105L8.61851 1.15339L9.49329 0.58041C10.4084 -0.0189907 11.5918 -0.0189907 12.5069 0.58041ZM11.6813 1.8372L12.5619 2.40958L17.0069 5.32104C17.7827 5.82918 18.2501 6.6941 18.2501 7.62149V16C18.2501 17.5188 17.0189 18.75 15.5001 18.75H6.50009C4.9813 18.75 3.75009 17.5188 3.75009 16V7.62149C3.75009 6.6941 4.21751 5.82918 4.99329 5.32104L9.43824 2.4096L10.3189 1.8372C10.7331 1.56794 11.2671 1.56794 11.6813 1.8372Z" fill="white"/>
</svg>
